# xmcd
#
# Track frame offsets: 
#        150
#        15575
#        30769
#        47218
#        62098
#        77357
#        95054
#        108918
#        127061
#        142615
#        159790
#        175520
#
# Disc length: 2606 seconds
#
# Revision: 0
# Processed by: cddbd v1.5.2PL0 Copyright (c) Steve Scherf et al.
# Submitted via: ExactAudioCopy v0.99pb4
#
DISCID=810a2c0c
DTITLE=Nivea - Animalistic
DYEAR=2007
DGENRE=R&B
TTITLE0=Animalistic
TTITLE1=Watch It
TTITLE2=Trapstar
TTITLE3=Serious
TTITLE4=Tell Me She's Nothin'
TTITLE5=Once I'm Gone
TTITLE6=Blackgirl (Loose In Miami)
TTITLE7=Butterflies
TTITLE8=Ooh La La
TTITLE9=Get Your X
TTITLE10=I.L.Y
TTITLE11=Georgia
EXTD=
EXTT0=
EXTT1=
EXTT2=
EXTT3=
EXTT4=
EXTT5=
EXTT6=
EXTT7=
EXTT8=
EXTT9=
EXTT10=
EXTT11=
PLAYORDER=
